<?xml version="1.0" standalone="no"?>
<!DOCTYPE svg PUBLIC "-//W3C//DTD SVG 20010904//EN"
 "http://www.w3.org/TR/2001/REC-SVG-20010904/DTD/svg10.dtd">
<svg version="1.0" xmlns="http://www.w3.org/2000/svg"
 width="512.000000pt" height="512.000000pt" viewBox="0 0 512.000000 512.000000"
 preserveAspectRatio="xMidYMid meet">

<g transform="translate(0.000000,512.000000) scale(0.100000,-0.100000)"
fill="#000000" stroke="none">
<path d="M799 4290 c-47 -25 -86 -71 -99 -118 -6 -24 -10 -454 -10 -1274 l0
-1238 -103 0 c-141 0 -137 6 -137 -191 0 -102 5 -176 15 -218 48 -203 223
-378 426 -426 97 -22 3241 -22 3338 0 203 48 378 223 426 426 10 43 15 116 15
220 0 195 5 189 -138 189 l-102 0 0 1238 c0 820 -4 1250 -10 1274 -14 48 -53
94 -101 118 -37 20 -70 20 -1761 20 -1679 -1 -1724 -1 -1759 -20z m3485 -132
c14 -20 16 -156 16 -1260 l0 -1238 -1740 0 -1740 0 0 1238 c0 1104 2 1240 16
1260 l15 22 1709 0 1709 0 15 -22z m254 -2751 c-3 -105 -9 -143 -26 -187 -44
-110 -141 -207 -252 -253 l-55 -22 -1645 0 -1645 0 -55 22 c-111 46 -208 143
-252 253 -17 44 -23 82 -26 187 l-4 133 1982 0 1982 0 -4 -133z"/>
<path d="M1580 3911 c-92 -30 -171 -97 -211 -179 -17 -35 -24 -69 -27 -134 -4
-81 -2 -93 26 -150 58 -123 154 -189 287 -196 110 -6 179 21 256 97 130 130
134 332 10 464 -68 73 -128 100 -231 103 -47 2 -96 0 -110 -5z m176 -131 c70
-26 125 -113 125 -195 0 -67 -22 -116 -73 -160 -84 -71 -205 -66 -279 12 -64
67 -79 124 -55 208 34 116 164 178 282 135z"/>
<path d="M2580 3690 c-25 -25 -25 -51 -1 -81 l19 -24 717 0 717 0 19 24 c23
28 19 68 -8 89 -13 9 -175 12 -730 12 -700 0 -713 0 -733 -20z"/>
<path d="M1368 3131 c-118 -38 -217 -125 -269 -234 -37 -81 -49 -146 -49 -277
0 -91 3 -111 19 -131 l19 -24 586 0 c548 0 586 1 603 18 23 23 30 171 14 278
-29 184 -156 330 -326 374 -92 24 -519 21 -597 -4z m631 -146 c110 -61 161
-151 169 -297 l5 -98 -497 0 -496 0 0 78 c0 96 20 167 63 224 36 47 112 103
161 117 17 6 146 9 286 8 l255 -2 54 -30z"/>
<path d="M2580 3130 c-25 -25 -25 -51 -1 -81 l19 -24 717 0 717 0 19 24 c23
28 19 68 -8 89 -13 9 -175 12 -730 12 -700 0 -713 0 -733 -20z"/>
<path d="M2580 2570 c-25 -25 -25 -51 -1 -81 l19 -24 717 0 717 0 19 24 c23
28 19 68 -8 89 -13 9 -175 12 -730 12 -700 0 -713 0 -733 -20z"/>
<path d="M1070 2070 c-24 -24 -25 -48 -4 -78 l15 -22 1479 0 1479 0 15 22 c21
30 20 54 -4 78 -20 20 -33 20 -1490 20 -1457 0 -1470 0 -1490 -20z"/>
<path d="M2255 1245 c-30 -29 -31 -45 -4 -79 l20 -26 289 0 289 0 20 26 c27
34 26 50 -4 79 l-24 25 -281 0 -281 0 -24 -25z"/>
</g>
</svg>
