<?xml version="1.0" standalone="no"?>
<!DOCTYPE svg PUBLIC "-//W3C//DTD SVG 20010904//EN"
 "http://www.w3.org/TR/2001/REC-SVG-20010904/DTD/svg10.dtd">
<svg version="1.0" xmlns="http://www.w3.org/2000/svg"
 width="512.000000pt" height="512.000000pt" viewBox="0 0 512.000000 512.000000"
 preserveAspectRatio="xMidYMid meet">

<g transform="translate(0.000000,512.000000) scale(0.100000,-0.100000)"
fill="#000000" stroke="none">
<path d="M2150 5093 c-27 -26 -36 -52 -100 -313 -39 -157 -75 -301 -80 -320
-9 -32 -16 -37 -87 -64 -43 -15 -110 -43 -149 -61 l-71 -32 -279 168 c-248
150 -284 168 -324 169 l-44 0 -268 -268 -268 -268 0 -44 c1 -40 19 -76 169
-324 l168 -279 -37 -81 c-20 -45 -48 -112 -61 -149 -22 -62 -27 -68 -59 -77
-19 -5 -163 -41 -320 -80 -261 -64 -287 -73 -312 -100 l-28 -30 0 -380 0 -380
27 -30 c26 -27 52 -36 313 -100 157 -39 301 -75 320 -80 32 -9 37 -15 59 -77
13 -37 41 -104 61 -149 l37 -81 -168 -279 c-150 -248 -168 -284 -169 -324 l0
-44 268 -268 268 -268 44 0 c40 1 76 19 324 169 l278 167 123 -52 c68 -29 135
-56 149 -60 19 -4 28 -16 35 -43 6 -20 42 -164 81 -321 64 -261 73 -287 100
-312 l30 -28 380 0 380 0 30 27 c27 26 36 52 100 313 39 157 75 301 80 320 9
32 15 37 77 59 37 13 104 41 149 61 l81 37 279 -168 c248 -150 284 -168 324
-169 l44 0 268 268 268 268 0 44 c-1 40 -19 76 -169 324 l-168 279 32 71 c18
39 46 106 61 149 27 71 32 78 64 87 19 5 163 41 320 80 261 64 287 73 312 100
l28 30 0 380 0 380 -27 30 c-26 27 -52 36 -313 100 -157 39 -301 75 -320 80
-32 9 -37 15 -59 77 -13 37 -41 104 -61 149 l-37 81 168 279 c150 248 168 284
169 324 l0 44 -268 268 -268 268 -44 0 c-40 -1 -76 -19 -324 -169 l-279 -168
-81 37 c-45 20 -112 48 -149 61 -62 22 -68 27 -77 59 -5 19 -41 163 -80 320
-64 261 -73 287 -100 313 l-30 27 -380 0 -380 0 -30 -27z m744 -440 c37 -148
73 -288 79 -311 16 -62 43 -83 143 -116 49 -15 140 -53 203 -82 63 -30 127
-54 143 -54 21 0 114 51 303 164 l272 164 191 -190 190 -191 -164 -272 c-113
-189 -164 -282 -164 -303 0 -16 24 -80 54 -143 29 -63 67 -154 82 -203 16 -48
39 -98 50 -110 17 -16 90 -38 300 -90 154 -38 294 -73 312 -78 l32 -9 0 -269
0 -269 -32 -9 c-18 -5 -158 -40 -311 -77 -213 -53 -284 -74 -300 -91 -12 -12
-35 -62 -51 -110 -15 -49 -53 -140 -82 -203 -30 -63 -54 -127 -54 -143 0 -21
51 -114 164 -303 l164 -272 -190 -191 -191 -190 -272 164 c-189 113 -282 164
-303 164 -16 0 -80 -24 -143 -54 -63 -29 -154 -67 -203 -82 -100 -33 -127 -54
-143 -116 -6 -23 -42 -163 -79 -310 l-67 -268 -267 0 -267 0 -79 311 c-59 234
-84 316 -100 332 -11 11 -70 37 -129 58 -60 21 -151 59 -203 84 -52 25 -107
45 -124 45 -21 0 -111 -49 -303 -164 l-272 -164 -191 190 -190 191 164 272
c113 189 164 282 164 303 0 16 -24 80 -54 143 -29 63 -67 154 -82 203 -16 48
-39 98 -51 110 -17 17 -93 40 -332 101 l-311 78 0 267 0 267 311 78 c239 61
315 84 332 101 12 12 35 62 51 110 15 49 53 140 82 203 30 63 54 127 54 143 0
21 -51 114 -164 303 l-164 272 190 191 191 190 272 -164 c192 -115 282 -164
303 -164 17 0 72 20 124 45 52 25 143 63 203 84 59 21 118 47 129 58 16 16 41
98 100 332 l79 311 267 0 267 0 67 -267z"/>
<path d="M2385 3909 c-161 -21 -352 -85 -497 -168 -617 -353 -858 -1112 -558
-1758 126 -271 353 -504 626 -641 86 -43 249 -98 352 -119 122 -24 386 -24
501 0 176 38 379 116 413 160 28 36 23 98 -10 130 -36 35 -86 35 -152 2 -129
-65 -342 -115 -495 -115 -318 0 -623 132 -846 367 -93 97 -147 175 -204 296
-153 318 -153 676 0 994 57 121 111 199 204 296 352 370 883 470 1338 252 123
-58 200 -112 301 -209 106 -101 169 -185 231 -306 142 -276 168 -587 75 -882
-40 -124 -33 -167 33 -194 42 -18 93 -5 116 29 21 33 73 199 88 287 20 109 17
373 -4 482 -89 448 -388 818 -806 999 -214 92 -470 127 -706 98z"/>
<path d="M3451 1806 c-87 -48 -50 -186 49 -186 51 0 100 49 100 99 0 75 -83
124 -149 87z"/>
</g>
</svg>
