<?xml version="1.0" standalone="no"?>
<!DOCTYPE svg PUBLIC "-//W3C//DTD SVG 20010904//EN"
 "http://www.w3.org/TR/2001/REC-SVG-20010904/DTD/svg10.dtd">
<svg version="1.0" xmlns="http://www.w3.org/2000/svg"
 width="512.000000pt" height="512.000000pt" viewBox="0 0 512.000000 512.000000"
 preserveAspectRatio="xMidYMid meet">

<g transform="translate(0.000000,512.000000) scale(0.100000,-0.100000)"
fill="#000000" stroke="none">
<path d="M2382 4949 c-172 -29 -320 -107 -452 -239 -135 -135 -210 -279 -239
-460 -15 -92 -14 -672 1 -722 14 -49 76 -120 123 -142 19 -10 54 -20 76 -24
40 -7 42 -9 58 -62 22 -70 51 -125 95 -184 31 -40 36 -54 36 -101 l0 -55 -234
0 c-258 0 -311 -7 -404 -50 -78 -36 -178 -133 -216 -209 -19 -37 -49 -152
-101 -394 -101 -470 -134 -620 -137 -622 -2 -2 -33 -5 -69 -7 l-66 -4 -114
229 c-63 126 -123 235 -134 243 -47 34 -125 -4 -125 -60 0 -14 53 -131 117
-260 l116 -233 -23 -32 c-40 -57 -50 -113 -50 -281 0 -200 11 -243 83 -314 35
-35 68 -57 102 -68 48 -16 38 -17 -323 -17 l-373 -1 -24 -25 c-25 -24 -25 -26
-25 -215 0 -189 0 -191 25 -215 20 -21 34 -25 80 -25 l55 0 0 -95 c0 -88 2
-98 25 -120 l24 -25 2271 0 2271 0 24 25 c23 22 25 32 25 120 l0 95 55 0 c46
0 60 4 80 25 25 24 25 26 25 215 0 189 0 191 -25 215 l-24 25 -293 1 c-161 0
-282 4 -268 8 46 14 105 49 131 78 52 55 72 111 77 210 6 127 -14 190 -84 260
-67 68 -118 83 -273 83 l-116 0 -47 218 c-26 119 -81 373 -122 564 -53 245
-83 362 -102 400 -38 75 -138 172 -216 208 -93 43 -146 50 -404 50 l-234 0 0
55 c0 47 5 61 36 101 44 59 73 114 95 184 16 53 18 55 58 62 22 4 57 14 76 24
47 22 109 93 123 142 15 50 16 630 1 722 -29 181 -104 325 -239 460 -135 135
-279 210 -460 239 -77 13 -272 12 -348 0z m423 -182 c108 -35 194 -89 274
-168 130 -131 190 -273 199 -476 l5 -123 -42 0 -41 0 0 45 c0 58 -16 91 -52
106 -25 10 -42 8 -126 -20 -232 -75 -540 -116 -954 -128 l-228 -6 0 92 c0 290
138 521 385 641 116 56 192 70 360 66 118 -3 153 -8 220 -29z m225 -1373 c-26
-123 -116 -247 -220 -299 -146 -74 -354 -74 -500 0 -63 32 -143 112 -175 175
-47 92 -55 148 -55 367 l0 203 23 0 c64 1 339 22 457 36 133 15 402 64 450 82
l25 9 3 -261 c1 -155 -2 -282 -8 -312z m-1110 286 c0 -138 -2 -160 -15 -160
-9 0 -27 11 -40 25 -24 23 -25 29 -25 160 l0 135 40 0 40 0 0 -160z m1360 25
c0 -131 -1 -137 -25 -160 -13 -14 -31 -25 -40 -25 -13 0 -15 22 -15 160 l0
160 40 0 40 0 0 -135z m-903 -806 c143 -36 366 -19 472 36 l31 16 0 -53 c-1
-70 -27 -125 -84 -175 -64 -56 -130 -78 -236 -78 -106 0 -172 22 -236 78 -57
50 -83 105 -84 175 l0 53 31 -16 c16 -9 64 -25 106 -36z m-267 -155 c32 -79
115 -161 210 -207 253 -125 580 -28 686 202 l29 62 260 -3 260 -3 52 -27 c63
-34 116 -84 144 -139 11 -23 32 -96 46 -162 14 -67 67 -312 117 -543 l92 -422
-45 -33 c-55 -41 -96 -99 -110 -156 -16 -61 -13 -181 5 -243 21 -70 98 -149
169 -172 l50 -17 -157 0 -158 -1 0 639 c0 737 3 708 -86 798 -88 88 -20 83
-1114 83 -1095 0 -1026 5 -1116 -84 -87 -88 -84 -60 -84 -798 l0 -638 -157 1
c-90 0 -147 4 -133 8 83 26 141 74 181 151 23 43 24 54 24 240 0 192 0 196
-27 246 -15 28 -43 65 -62 82 -20 17 -36 38 -36 46 0 8 32 160 71 337 38 178
83 385 99 460 16 76 38 155 49 178 38 74 124 141 206 162 17 4 138 7 271 8
l240 1 24 -56z m1452 -542 l33 -32 3 -645 2 -645 -1040 0 -1040 0 2 644 3 644
25 27 c14 15 34 31 45 36 11 4 451 7 977 6 l958 -2 32 -33z m-2480 -720 l33
-32 0 -170 0 -170 -33 -32 c-32 -32 -34 -33 -122 -33 -88 0 -90 1 -122 33
l-33 32 0 169 c0 167 0 170 25 196 36 39 56 45 142 42 73 -2 80 -4 110 -35z
m3360 -160 c32 -32 33 -34 33 -122 0 -88 -1 -90 -33 -122 l-32 -33 -170 0
-170 0 -32 33 c-32 32 -33 34 -33 121 0 81 2 92 25 116 14 15 34 31 45 36 11
5 91 7 177 6 l158 -2 32 -33z m438 -682 l0 -80 -2320 0 -2320 0 0 80 0 80
2320 0 2320 0 0 -80z m-160 -280 l0 -40 -2160 0 -2160 0 0 40 0 40 2160 0
2160 0 0 -40z"/>
<path d="M2265 3735 c-50 -49 -15 -135 55 -135 41 0 80 39 80 80 0 41 -39 80
-80 80 -19 0 -40 -9 -55 -25z"/>
<path d="M2745 3735 c-16 -15 -25 -36 -25 -55 0 -19 9 -40 25 -55 15 -16 36
-25 55 -25 19 0 40 9 55 25 16 15 25 36 25 55 0 19 -9 40 -25 55 -15 16 -36
25 -55 25 -19 0 -40 -9 -55 -25z"/>
<path d="M2425 3335 c-16 -15 -25 -36 -25 -55 0 -19 9 -40 25 -55 23 -24 31
-25 135 -25 104 0 112 1 135 25 16 15 25 36 25 55 0 19 -9 40 -25 55 -23 24
-31 25 -135 25 -104 0 -112 -1 -135 -25z"/>
<path d="M2460 1744 c-142 -52 -229 -183 -218 -327 26 -318 443 -407 597 -127
33 60 36 71 36 150 -1 72 -5 93 -27 136 -39 75 -70 107 -138 143 -76 41 -179
51 -250 25z m163 -158 c103 -43 128 -177 48 -257 -65 -65 -157 -65 -222 0
-124 123 13 325 174 257z"/>
</g>
</svg>
